<?xml version="1.0" standalone="no"?><!DOCTYPE svg PUBLIC "-//W3C//DTD SVG 1.1//EN" "http://www.w3.org/Graphics/SVG/1.1/DTD/svg11.dtd"><svg t="1558071105824" class="icon" style="" viewBox="0 0 1073 1024" version="1.1" xmlns="http://www.w3.org/2000/svg" p-id="6163" xmlns:xlink="http://www.w3.org/1999/xlink" width="209.5703125" height="200"><defs><style type="text/css"></style></defs><path d="M644.33599958 994.52000037c-16.41599958-18.21600014-68.49599991-65.56800009-111.09599944-65.56800009-42.31199995 0-95.18399986 47.61600047-110.376 64.31999963-11.99999981 13.20000019-30.55199963 21.11999991-49.58400037 21.1199999a62.16000033 62.16000033 0 0 1-25.41599944-5.25599943L216.96799962 935.36c-24.86400033-17.59199991-33.84000014-50.23199967-22.15199995-76.82400042 0.09600019-0.19200038 11.95199972-27.84000023 11.9520007-53.08799935 0-76.51199981-61.60800023-138.79200037-137.28000037-138.79200037H64.87999986c-22.55999977 0-40.17599972-19.43999958-45.83999995-49.58399939-0.45599991-2.42399981-11.03999991-59.59200023-11.03999991-104.64000061 0-45.02400033 10.584-102.19199977 11.03999991-104.61599958 5.71200033-30.50399953 23.76000014-50.11200042 45.83999995-49.60800042h4.58400009c75.69600019 0 137.28000037-62.23200047 137.28000038-138.76800033 0-25.2-11.83200047-52.84799986-11.95200071-53.13599944-11.66400014-26.56799972-2.64000023-59.20800047 21.04800075-75.84000047L353.84000019 13.61600014C362.98400033 9.68000033 371.40800005 8 380.33599977 8c19.00799972 0 37.58399958 7.70400028 49.72800065 20.63999995 16.17600009 17.136 67.29599953 61.68000037 108.71999972 61.68000038 40.99200033 0 91.80000014-43.67999967 107.92800014-60.48 12.07199995-12.67200014 30.52799958-20.28000023 49.31999986-20.28000024 9.12000009 0 17.68800009 1.75200047 25.51199963 5.20800033l133.43999976 74.7359993c24.91200042 17.59199991 33.88800023 50.23199967 22.20000005 76.82400042-0.07200014 0.21600042-11.95199972 27.86400028-11.95199972 53.08800033 0 76.53599986 61.60800023 138.76800033 137.30400042 138.76799934h4.60800014c22.03199972-0.47999995 40.10399958 19.07999986 45.81599991 49.60800042 0.45599991 2.42399981 11.03999991 59.59200023 11.0399999 104.63999963 0 45.02400033-10.584 102.19199977-11.0399999 104.61600056-5.71200033 30.52799958-23.78400019 50.04000028-45.83999996 49.58399939h-4.56000004c-75.72000023 0-137.32800047 62.27999958-137.32800047 138.79200038 0 25.2 11.85599953 52.84799986 11.99999981 53.13599943 11.64000009 26.54399967 2.64000023 59.18400042-20.99999967 75.84000047l-135.60000005 75.93599968a63.86399972 63.86399972 0 0 1-26.35200028 5.66400023c-19.20000009 0-37.87200014-8.03999995-49.92000005-21.47999963z m49.94400009-41.40000014c0.09600019 0 125.64000028-70.08000005 125.64000028-70.08000004-3.024-7.10400009-16.87200047-41.61599958-16.87199948-77.59199996 0-107.66399963 83.88000042-195.88799967 189.02399906-201.4080006 1.512-8.44799977 9.74400033-55.944 9.74400033-91.60799977 0-35.66399977-8.23200033-83.16-9.74400033-91.63199981-105.14399962-5.51999995-189.02400005-93.744-189.02399906-201.36000052 0-36.07199958 13.89599958-70.63200014 16.87199948-77.66399911l-123.35999976-69.31200051a10.34399953 10.34399953 0 0 0-5.25600042 1.20000037c-2.06400009 2.16000028-19.94399958 20.47199963-45.64799958 38.75999991-38.04000047 27.04799967-73.99199981 40.75199986-106.92000014 40.75199986-33.19199986 0-69.43199977-13.99199977-107.73599977-41.54400042a347.20799991 347.20799991 0 0 1-45.88800005-39.52799944 9.83999953 9.83999953 0 0 0-4.77600046-1.24800047c-0.16800033 0-128.25600047 70.99199986-128.25599949 70.99199986 3.07200009 7.20000028 16.87200047 41.63999963 16.87199949 77.56800089 0 107.63999958-83.88000042 195.83999958-189.02400005 201.35999953-1.512 8.47199981-9.74400033 55.99200009-9.74399935 91.65599986 0 35.63999972 8.23200033 83.13599995 9.74399935 91.60799977 105.14399962 5.51999995 189.02400005 93.744 189.02400005 201.4080006 0 36.11999967-13.96799972 70.72800033-16.91999958 77.6640001l120.96 68.39999972a8.76000038 8.76000038 0 0 0 4.31999958-1.03200005c2.27999953-2.44799986 20.32800033-21.79200023 46.368-41.06400047 38.78399995-28.75200005 75.64800009-43.31999995 109.56000037-43.31999995 34.22399991 0 71.37599962 14.85600047 110.40000005 44.11200051 26.15999991 19.68000005 44.30399991 39.36000009 46.55999939 41.85600005a8.64000014 8.64000014 0 0 0 4.08000009 1.05600009zM350.84000023 511.75999953c0-101.92800023 82.03199977-184.84799977 182.85599982-184.84799976 100.8 0 182.83199977 82.91999953 182.83199976 184.84799976 0 101.90400019-82.00799972 184.79999967-182.83199976 184.80000066-100.82400005 0-182.87999986-82.89600047-182.87999986-184.80000066z m62.20799944 0c0 67.24800042 54.12000037 121.94399995 120.64800038 121.94400094 66.528 0 120.64800037-54.71999958 120.64800037-121.968s-54.12000037-121.94399995-120.64800037-121.94400094c-66.528 0-120.64800037 54.71999958-120.64800038 121.94400094z" fill="#e6e6e6" p-id="6164"></path></svg>